<?xml version="1.0" standalone="no"?>
<!DOCTYPE svg PUBLIC "-//W3C//DTD SVG 20010904//EN"
 "http://www.w3.org/TR/2001/REC-SVG-20010904/DTD/svg10.dtd">
<svg version="1.0" xmlns="http://www.w3.org/2000/svg"
 width="667.000000pt" height="1179.000000pt" viewBox="0 0 667.000000 1179.000000"
 preserveAspectRatio="xMidYMid meet">

<g transform="translate(0.000000,1179.000000) scale(0.100000,-0.100000)"
fill="#000000" stroke="none">
<path d="M705 11768 c-9 -20 -18 -23 -82 -26 -60 -2 -75 -6 -83 -22 -7 -13
-21 -20 -38 -20 -15 0 -35 -9 -45 -20 -9 -11 -27 -20 -39 -20 -32 0 -288 -256
-288 -287 0 -13 -9 -31 -20 -40 -11 -10 -20 -30 -20 -45 0 -17 -7 -31 -20 -38
-16 -8 -20 -23 -22 -83 -3 -64 -6 -73 -25 -82 -22 -9 -23 -14 -23 -150 0 -136
1 -141 23 -150 19 -9 22 -19 25 -79 2 -56 7 -73 23 -83 11 -9 19 -26 19 -43 0
-19 7 -33 20 -40 12 -6 20 -21 20 -36 0 -18 18 -43 60 -85 37 -36 60 -68 60
-81 0 -16 621 -643 2210 -2230 1216 -1215 2210 -2210 2210 -2213 0 -3 -290
-295 -645 -649 -443 -442 -645 -651 -645 -665 0 -15 -304 -325 -980 -1000
-669 -669 -980 -986 -980 -1001 0 -14 -194 -215 -605 -625 -445 -444 -605
-610 -605 -627 0 -14 -16 -37 -40 -58 -36 -31 -40 -40 -40 -81 0 -33 -6 -51
-20 -64 -14 -13 -20 -31 -20 -62 0 -31 -6 -48 -20 -60 -18 -16 -20 -30 -20
-169 0 -138 2 -152 20 -169 16 -15 20 -31 20 -87 0 -68 1 -69 30 -80 23 -7 37
-24 56 -63 43 -93 158 -222 249 -282 22 -14 51 -34 65 -43 14 -10 37 -21 50
-25 14 -4 34 -13 45 -20 12 -7 47 -18 79 -25 31 -6 60 -18 63 -26 8 -21 298
-21 306 0 3 8 31 20 62 26 143 30 256 105 455 305 85 85 159 155 165 155 5 0
418 408 918 908 598 598 907 914 907 927 0 13 333 353 980 1000 650 650 980
987 980 1000 0 13 83 103 230 250 127 126 230 237 230 245 0 9 75 93 168 187
382 391 393 404 443 512 11 25 27 57 34 71 7 14 19 54 26 88 6 35 18 66 25 69
21 8 20 271 -1 287 -8 6 -20 37 -26 70 -10 56 -22 87 -76 191 -40 78 -80 122
-345 390 -136 137 -248 256 -248 265 0 8 -346 362 -770 785 -526 526 -770 776
-770 790 0 14 -479 499 -1533 1553 -1190 1188 -1539 1532 -1558 1532 -15 0
-36 14 -59 40 -32 36 -40 40 -82 40 -37 0 -51 5 -60 20 -11 16 -24 20 -75 20
-74 0 -93 6 -93 31 0 18 -9 19 -123 19 -117 0 -123 -1 -132 -22z"/>
</g>
</svg>
